<svg width="70" height="72" viewBox="0 0 70 72" fill="none" xmlns="http://www.w3.org/2000/svg">
<path d="M50.0841 0C47.292 0.0208095 44.5162 0.427652 41.8353 1.20901L41.6466 1.26901C39.9556 0.969571 38.2436 0.804058 36.5267 0.774007C32.9996 0.714006 29.9696 1.57201 27.5264 3.00003C25.1191 2.16302 20.1249 0.720006 14.8612 1.00801C11.1964 1.20901 7.19628 2.32502 4.2321 5.46005C1.27691 8.59508 -0.286025 13.4461 0.0433285 20.0462C0.133152 21.8672 0.651135 24.8372 1.51045 28.6833C2.36976 32.5293 3.57639 37.0323 5.08243 41.1394C6.58847 45.2494 8.23823 48.9394 10.8162 51.4475C12.1036 52.7045 13.8762 53.7605 15.9661 53.6735C17.4332 53.6135 18.7596 52.9685 19.9033 52.0175C20.4602 52.7525 21.0561 53.0735 21.598 53.3705C22.2807 53.7455 22.9453 54.0005 23.634 54.1685C24.8706 54.4775 26.9874 54.8915 29.4665 54.4685C30.3109 54.3275 31.2001 54.0515 32.0864 53.6585C32.1193 54.6485 32.1583 55.6175 32.1972 56.5985C32.3199 59.7065 32.3978 62.5776 33.329 65.0946C33.4787 65.5056 33.8889 67.6236 35.5057 69.4926C37.1225 71.3646 40.2903 72.5317 43.8982 71.7576C46.4432 71.2116 49.6798 70.2276 51.8296 67.1616C53.9555 64.1316 54.9136 59.7845 55.1022 52.7345C55.1501 52.3535 55.207 52.0295 55.2669 51.7265L55.7729 51.7715H55.8328C58.5484 51.8945 61.4946 51.5075 63.9558 50.3615C66.1355 49.3504 67.7853 48.3274 68.9859 46.5124C69.2853 46.0624 69.6147 45.5194 69.7045 44.5834C69.7943 43.6474 69.2584 42.1834 68.3691 41.5084C66.5876 40.1524 65.4678 40.6684 64.2672 40.9174C63.0845 41.1794 61.8792 41.326 60.6683 41.3554C64.1295 35.5143 66.6116 29.3103 68.0278 23.8202C68.8662 20.5802 69.3362 17.5922 69.3752 14.9791C69.4141 12.3661 69.2015 10.0531 67.6386 8.05207C62.7552 1.80002 55.8896 0.0720006 50.5781 0.0120001C50.4134 0.00900008 50.2487 0.00600005 50.0841 0.00900008V0ZM49.9433 1.92002C54.9675 1.87202 61.3869 3.28503 65.9948 9.18608C67.0308 10.5121 67.3392 12.4501 67.3032 14.8381C67.2643 17.2232 66.8242 20.0792 66.0188 23.2082C64.4558 29.2683 61.5036 36.3333 57.3448 42.6724C57.4917 42.7769 57.6505 42.8636 57.8179 42.9304C58.6862 43.2904 60.6653 43.5994 64.6145 42.7864C65.6086 42.5764 66.3361 42.4354 67.0907 43.0114C67.274 43.1671 67.4189 43.3633 67.514 43.5845C67.609 43.8057 67.6517 44.0459 67.6386 44.2864C67.5983 44.6505 67.4641 44.9979 67.2493 45.2944C66.4858 46.4434 64.9798 47.5324 63.0486 48.4294C61.3389 49.2274 58.8868 49.6444 56.713 49.6684C55.6232 49.6804 54.6172 49.5964 53.7638 49.3294L53.7099 49.3084C53.3806 52.4885 52.6231 58.7675 52.129 61.6326C51.7338 63.9426 51.0422 65.7786 49.7218 67.1526C48.4044 68.5266 46.539 69.3546 44.0299 69.8946C40.922 70.5636 38.6555 69.8436 37.1944 68.6106C35.7362 67.3806 35.0685 65.7486 34.6673 64.7496C34.3919 64.0596 34.2482 63.1656 34.1104 61.9716C33.9727 60.7775 33.8709 59.3165 33.802 57.6695C33.7103 55.1476 33.6804 52.6238 33.7122 50.1005C32.4139 51.2919 30.8007 52.0834 29.0653 52.3805C27.0024 52.7315 25.161 52.3865 24.0622 52.1105C23.5205 51.9742 22.9976 51.7716 22.5052 51.5075C21.9962 51.2345 21.5112 50.9255 21.1878 50.3164C20.9978 49.9677 20.9373 49.5627 21.0171 49.1734C21.1183 48.7789 21.348 48.4294 21.6699 48.1804C22.2627 47.6974 23.0471 47.4274 24.2298 47.1814C26.3826 46.7374 27.1341 46.4344 27.5922 46.0714C27.9815 45.7594 28.4216 45.1294 29.2001 44.2054C29.1963 44.1645 29.1934 44.1234 29.1911 44.0824C27.7979 44.0431 26.4335 43.6752 25.2089 43.0084C24.7598 43.4824 22.4663 45.9124 19.6698 49.2844C18.4931 50.6945 17.1936 51.5045 15.8223 51.5615C14.451 51.6215 13.2115 50.9285 12.1575 49.9054C10.0527 47.8564 8.37297 44.3314 6.90884 40.3474C5.44771 36.3633 4.25905 31.9263 3.41471 28.1463C2.56737 24.3662 2.06735 21.3182 1.99549 19.8482C1.68111 13.6021 3.13925 9.39308 5.63934 6.73806C8.14242 4.08304 11.5737 3.07803 14.9181 2.88603C20.9213 2.54102 26.6221 4.63804 27.7749 5.08805C29.9965 3.57603 32.8589 2.63402 36.4339 2.69402C38.131 2.71788 39.8199 2.93732 41.467 3.34803L41.5269 3.32103C42.2518 3.06569 42.9905 2.85135 43.7395 2.67902C45.7731 2.20368 47.8523 1.9512 49.9403 1.92602L49.9433 1.92002ZM50.3984 3.93004H49.9613C48.2459 3.95401 46.537 4.14694 44.8593 4.50604C48.59 6.16206 51.4075 8.71208 53.3926 11.2561C54.7715 13.0175 55.9112 14.9544 56.7819 17.0162C57.1113 17.8082 57.3328 18.4772 57.4586 18.9962C57.5214 19.2572 57.5634 19.4762 57.5783 19.7042C57.5843 19.8182 57.5903 19.9352 57.5424 20.1362C57.5424 20.1452 57.5274 20.1662 57.5244 20.1752C57.6143 22.8032 56.9645 24.5852 56.8867 27.0932C56.8268 28.9113 57.2909 31.0473 57.4047 33.3783C57.5125 35.5683 57.249 37.9743 55.8298 40.3354C55.9495 40.4794 56.0573 40.6234 56.1711 40.7674C59.9257 34.8423 62.6324 28.2873 64.0756 22.6982C64.8481 19.6892 65.2583 16.9622 65.2942 14.8021C65.3241 12.6421 64.9229 11.0761 64.4109 10.4221C60.3928 5.27405 54.9555 3.96304 50.3984 3.92704V3.93004ZM36.0566 4.69804C32.5175 4.70704 29.9785 5.77805 28.0533 7.38307C26.0682 9.04208 24.7358 11.3131 23.8615 13.6381C22.8226 16.3981 22.4663 19.0682 22.3256 20.8802L22.3645 20.8562C23.4334 20.2562 24.8376 19.6562 26.3407 19.3082C27.8437 18.9632 29.4635 18.8552 30.9307 19.4252C32.3978 19.9952 33.6104 21.3362 34.0505 23.3702C36.1584 33.1413 33.3948 36.7743 32.3768 39.5164C31.9906 40.5102 31.6598 41.5248 31.3858 42.5554C31.5145 42.5254 31.6433 42.4894 31.772 42.4774C32.4906 42.4174 33.0535 42.6574 33.3888 42.8014C34.4128 43.2274 35.1164 44.1214 35.4967 45.1414C35.5955 45.4084 35.6674 45.6964 35.7093 45.9934C35.7535 46.1154 35.7739 46.2447 35.7692 46.3744C35.6556 50.1118 35.6686 53.852 35.8081 57.5885C35.877 59.2025 35.9788 60.6245 36.1075 61.7466C36.2362 62.8656 36.4189 63.7176 36.5357 64.0056C36.9189 64.9656 37.4788 66.2226 38.4908 67.0776C39.5028 67.9296 40.955 68.4996 43.6078 67.9296C45.9073 67.4346 47.3265 66.7476 48.2756 65.7606C49.2217 64.7736 49.7876 63.3996 50.1499 61.2965C50.6919 58.1465 51.7817 49.0114 51.9135 47.2924C51.8536 45.9964 52.0452 45.0004 52.4584 44.2414C52.8836 43.4614 53.5423 42.9844 54.1111 42.7264C54.3956 42.5974 54.6621 42.5104 54.8806 42.4474C54.6492 42.1142 54.4066 41.789 54.1531 41.4724C53.3329 40.4757 52.6612 39.3651 52.159 38.1753C51.9184 37.684 51.6618 37.2007 51.3895 36.7263C50.9913 36.0063 50.4883 35.1063 49.9613 34.0953C48.9074 32.0703 47.7606 29.6163 47.1648 27.2252C46.5719 24.8372 46.4851 22.3652 48.0061 20.6222C49.3535 19.0742 51.7188 18.4322 55.2699 18.7922C55.1651 18.4772 55.1022 18.2162 54.9255 17.7962C54.1227 15.9028 53.0748 14.1235 51.8087 12.5041C48.7996 8.64908 43.9281 4.82704 36.4009 4.70404H36.0566V4.69804ZM16.1697 4.85404C15.7894 4.85404 15.4092 4.86604 15.0319 4.88704C12.0078 5.06105 9.14845 5.94005 7.10346 8.11207C5.05548 10.2841 3.70813 13.8451 4.00155 19.7402C4.05844 20.8562 4.54349 23.9822 5.37586 27.6962C6.20523 31.4103 7.38192 35.7813 8.79514 39.6424C10.2114 43.5034 11.927 46.8634 13.5558 48.4534C14.3762 49.2484 15.0888 49.5694 15.7355 49.5424C16.3852 49.5124 17.1667 49.1374 18.1218 47.9884C19.8632 45.8837 21.6706 43.8347 23.5412 41.8444C22.2139 40.6897 21.1981 39.2188 20.5875 37.5672C19.9768 35.9157 19.791 34.1367 20.047 32.3943C20.3554 30.1773 20.3974 28.1043 20.3614 26.4662C20.3255 24.8702 20.2117 23.8082 20.2117 23.1452C20.2112 23.1262 20.2112 23.1072 20.2117 23.0882V23.0732L20.2087 23.0552V23.0522C20.2069 19.5986 20.8068 16.1711 21.9812 12.9241C22.8196 10.6921 24.0681 8.42408 25.9395 6.58806C24.1011 5.98205 20.8375 5.05805 17.3044 4.88404C16.9255 4.86454 16.5461 4.85454 16.1667 4.85404H16.1697ZM53.2908 20.7002C51.2577 20.7272 50.117 21.2522 49.5182 21.9392C48.6708 22.9142 48.59 24.6242 49.117 26.7302C49.6409 28.8393 50.7248 31.1973 51.7428 33.1563C52.2518 34.1373 52.7458 35.0193 53.144 35.7363C53.5453 36.4563 53.8387 36.9663 54.0183 37.4013C54.183 37.8033 54.3656 38.1573 54.5513 38.4873C55.3387 36.8223 55.4795 35.1873 55.3986 33.4833C55.2938 31.3743 54.8058 29.2173 54.8776 27.0332C54.9585 24.4802 55.4615 22.8182 55.5064 20.8442C54.7717 20.7488 54.0316 20.7007 53.2908 20.7002V20.7002ZM28.6372 21.0452C28.0161 21.051 27.3976 21.1254 26.7928 21.2672C25.5875 21.5606 24.4265 22.0136 23.3406 22.6142C22.9732 22.8116 22.6236 23.0405 22.2956 23.2982L22.2298 23.3582C22.2477 23.7962 22.3345 24.8582 22.3705 26.4212C22.4064 28.1313 22.3645 30.3123 22.0351 32.6733C21.3195 37.8033 25.0352 42.0514 29.4007 42.0574C29.6552 41.0044 30.0743 39.9364 30.4935 38.8113C31.7091 35.5293 34.1014 33.1353 32.0864 23.7932C31.757 22.2632 31.1043 21.6452 30.2061 21.2972C29.7026 21.1188 29.1711 21.0334 28.6372 21.0452V21.0452ZM52.3416 21.6572H52.4913C52.6889 21.6632 52.8716 21.6842 53.0303 21.7232C53.1919 21.7592 53.3297 21.8132 53.4435 21.8882C53.5018 21.9244 53.552 21.9725 53.5907 22.0293C53.6293 22.0862 53.6557 22.1505 53.668 22.2182L53.665 22.2422H53.668H53.665C53.6709 22.3846 53.6344 22.5256 53.5602 22.6472C53.4719 22.8119 53.3611 22.9633 53.2309 23.0972C52.9271 23.4323 52.5204 23.6562 52.0751 23.7332C51.6419 23.7857 51.2046 23.6756 50.8476 23.4242C50.7014 23.3257 50.5703 23.2065 50.4583 23.0702C50.3614 22.9632 50.2961 22.8313 50.2697 22.6892C50.2634 22.62 50.2714 22.5502 50.293 22.4842C50.3146 22.4182 50.3495 22.3572 50.3954 22.3052C50.4937 22.1933 50.6127 22.1017 50.7458 22.0352C51.0332 21.8732 51.4224 21.7532 51.8626 21.6872C52.0272 21.6632 52.1889 21.6512 52.3416 21.6482V21.6572ZM28.9276 22.1612C29.0863 22.1612 29.254 22.1762 29.4246 22.2002C29.8827 22.2632 30.2899 22.3862 30.6013 22.5662C30.7532 22.6456 30.8884 22.7536 30.9995 22.8842C31.0601 22.9535 31.1057 23.0345 31.1335 23.1223C31.1613 23.2101 31.1707 23.3026 31.1612 23.3942C31.1324 23.5667 31.0544 23.7272 30.9367 23.8562C30.8142 24.0069 30.6698 24.1384 30.5085 24.2462C30.1191 24.5226 29.6408 24.6435 29.1671 24.5852C28.6831 24.5055 28.24 24.2645 27.9096 23.9012C27.769 23.7549 27.6501 23.5892 27.5563 23.4092C27.4576 23.2508 27.4144 23.064 27.4335 22.8782C27.4784 22.5542 27.7449 22.3862 28.0054 22.2932C28.3021 22.1982 28.6135 22.1576 28.9246 22.1732L28.9276 22.1612ZM56.0543 44.1904L56.0453 44.1934C55.6052 44.3524 55.2429 44.4184 54.9375 44.5534C54.6287 44.6725 54.3741 44.9009 54.2219 45.1954C54.0333 45.5404 53.8716 46.1524 53.9195 47.1934C54.055 47.2869 54.2046 47.3578 54.3626 47.4034C54.8746 47.5594 55.734 47.6614 56.6921 47.6464C58.6023 47.6254 60.9527 47.1784 62.2013 46.5964C63.2255 46.1196 64.1763 45.4983 65.0247 44.7514H65.0217C60.8509 45.6154 58.4945 45.3844 57.0484 44.7874C56.6893 44.6377 56.3543 44.4355 56.0543 44.1874V44.1904ZM32.0085 44.4724H31.9457C31.787 44.4874 31.5564 44.5414 31.1103 45.0364C30.0684 46.2064 29.7031 46.9414 28.8438 47.6284C27.9845 48.3124 26.8676 48.6784 24.637 49.1374C23.9304 49.2814 23.5262 49.4404 23.2567 49.5694C23.3436 49.6414 23.3346 49.6594 23.4663 49.7284C23.7927 49.9084 24.2119 50.0675 24.5502 50.1545C25.5083 50.3945 27.0832 50.6735 28.727 50.3945C30.3708 50.1125 32.0804 49.3234 33.5385 47.2744C33.7901 46.9204 33.817 46.3984 33.6104 45.8374C33.4008 45.2764 32.9427 44.7934 32.6194 44.6584C32.4269 44.5654 32.2206 44.5046 32.0085 44.4784V44.4724Z" fill="white"/>
</svg>
