<svg width="72" height="71" viewBox="0 0 72 71" fill="none" xmlns="http://www.w3.org/2000/svg">
<path fill-rule="evenodd" clip-rule="evenodd" d="M45.5046 65.1294C45.0945 65.1284 44.6886 65.0477 44.3101 64.8916C43.9316 64.7356 43.5879 64.5071 43.2988 64.2197C43.0096 63.9323 42.7806 63.5919 42.6248 63.2169C42.469 62.842 42.3896 62.4403 42.3911 62.035C42.3709 61.6186 42.4365 61.2024 42.5838 60.8118C42.7312 60.4211 42.9572 60.0643 43.2483 59.7625C43.5394 59.4607 43.8896 59.2203 44.2774 59.0561C44.6652 58.892 45.0827 58.8063 45.5046 58.8063C45.9265 58.8063 46.3441 58.892 46.7319 59.0561C47.1198 59.2203 47.4699 59.4607 47.761 59.7625C48.0521 60.0643 48.2781 60.4211 48.4255 60.8118C48.5729 61.2024 48.6385 61.6186 48.6183 62.035C48.6183 63.7464 47.2257 65.1294 45.5046 65.1294ZM35.9638 70.5703C54.0957 70.5703 52.9638 62.7586 52.9638 62.7586L52.9423 54.6713H35.6424V52.2403H59.8124C59.8124 52.2403 71.4135 53.5448 71.4135 35.3765C71.4135 17.2046 61.2906 17.8476 61.2906 17.8476H55.2454V26.2812C55.2454 26.2812 55.5704 36.3361 45.2833 36.3361H28.1226C28.1226 36.3361 18.4818 36.1845 18.4818 45.595V61.1563C18.4818 61.1563 17.0178 70.5703 35.9638 70.5703ZM25.9123 5.44094C27.6334 5.44094 29.0224 6.82396 29.0224 8.53529C29.0365 8.94788 28.9666 9.35947 28.8166 9.74477C28.6665 10.1301 28.4396 10.4817 28.1492 10.7785C27.8589 11.0753 27.511 11.3116 27.1265 11.4728C26.7419 11.6341 26.3283 11.7158 25.9106 11.7158C25.4928 11.7158 25.0793 11.6341 24.6947 11.4728C24.3101 11.3116 23.9623 11.0753 23.6719 10.7785C23.3816 10.4817 23.1546 10.1301 23.0046 9.74477C22.8546 9.35947 22.7846 8.94788 22.7988 8.53529C22.7988 6.82396 24.1913 5.44094 25.9123 5.44094ZM35.4497 0C17.3214 0 18.4532 7.81166 18.4532 7.81166L18.4747 15.899H35.7746V18.33H11.6011C11.6011 18.33 0 17.0255 0 35.1938C0 53.3657 10.1264 52.7227 10.1264 52.7227H16.1681V44.2891C16.1681 44.2891 15.8431 34.2342 26.1338 34.2342H43.2908C43.2908 34.2342 52.9317 34.3858 52.9317 24.9753V9.41397C52.9317 9.41397 54.3957 0 35.4497 0Z" fill="white"/>
</svg>
