<svg width="65" height="71" viewBox="0 0 65 71" fill="none" xmlns="http://www.w3.org/2000/svg">
<path d="M58.0138 36.9146C57.5942 36.4418 57.1514 35.9677 56.6855 35.4923C57.0109 35.1551 57.3259 34.8181 57.6303 34.4814C63.3775 28.1151 65.803 21.7304 63.5555 17.892C61.4004 14.2118 54.9896 13.1151 46.9639 14.6536C46.1734 14.8061 45.3872 14.9781 44.6054 15.1696C44.4557 14.6609 44.2965 14.1552 44.1278 13.6524C41.4052 5.56315 37.0071 0.301413 32.5118 0.3042C28.2013 0.306141 24.0353 5.23384 21.3776 12.8569C21.1161 13.6089 20.8742 14.3672 20.6519 15.1317C20.1292 15.0053 19.6043 14.8885 19.0772 14.7813C10.6095 13.0673 3.78923 14.1962 1.54607 18.0367C-0.604867 21.7197 1.64459 27.7395 7.01648 33.8166C7.54924 34.4179 8.09708 35.0057 8.66 35.58C7.99639 36.254 7.36801 36.9275 6.78232 37.5973C1.54063 43.5887 -0.580207 49.5101 1.56725 53.1771C3.78508 56.9649 10.5093 58.203 18.6938 56.6151C19.3571 56.4855 20.0167 56.3396 20.6727 56.1776C20.913 57.0046 21.1766 57.8244 21.4634 58.637C24.1094 66.107 28.2521 70.876 32.5474 70.8745C36.9832 70.8719 41.43 65.748 44.1242 57.9646C44.337 57.3495 44.5384 56.7107 44.7293 56.053C45.5767 56.2609 46.4295 56.4453 47.2877 56.6063C55.1734 58.0772 61.4335 56.9203 63.577 53.2507C65.7905 49.4601 63.5082 43.1026 58.0138 36.9146ZM4.19586 19.541C5.57683 17.1769 11.1506 16.2546 18.4617 17.7345C18.929 17.8292 19.4043 17.935 19.8875 18.052C19.1737 21.1651 18.6701 24.3214 18.3798 27.5002C15.7418 29.3299 13.2267 31.326 10.8502 33.4761C10.3266 32.9422 9.81698 32.3954 9.32135 31.8357C4.7186 26.6286 2.89961 21.7604 4.19586 19.541ZM18.1059 39.7526C16.2787 38.3885 14.5805 36.9911 13.0392 35.5855C14.5794 34.1886 16.2787 32.7959 18.1022 31.4354C18.0366 32.8213 18.0041 34.2082 18.0048 35.5962C18.0058 36.9822 18.0395 38.3677 18.1059 39.7526ZM18.1037 53.6571C15.0017 54.3371 11.7993 54.4485 8.65642 53.9857C7.79485 53.9196 6.95619 53.68 6.19227 53.2817C5.42834 52.8833 4.75538 52.3348 4.21498 51.67C2.912 49.4446 4.61496 44.6906 9.09777 39.5664C9.66135 38.9242 10.2434 38.2988 10.844 37.6901C13.2208 39.8514 15.7401 41.8554 18.3852 43.6888C18.6794 46.9082 19.1889 50.105 19.9106 53.2581C19.3117 53.4058 18.7095 53.5388 18.1037 53.6571ZM43.5181 25.2902C42.3178 24.5445 41.1026 23.8227 39.8726 23.1249C38.6622 22.438 37.4373 21.7769 36.1978 21.1416C38.3201 20.2619 40.4063 19.5105 42.4203 18.8982C42.895 21.0093 43.2614 23.1427 43.5181 25.2902ZM24.2694 13.8368C26.5464 7.305 29.9156 3.31994 32.5135 3.31885C35.2803 3.31754 38.8751 7.61749 41.2258 14.6017C41.3785 15.057 41.5228 15.5149 41.6588 15.9753C38.5706 16.9196 35.5492 18.0644 32.6143 19.4022C29.6916 18.0487 26.6797 16.8911 23.599 15.9374C23.8049 15.2319 24.0284 14.5317 24.2694 13.8368ZM22.8365 18.8606C24.9372 19.5127 27.0033 20.2687 29.0268 21.1259C26.5196 22.4016 24.0771 23.7911 21.6995 25.2945C21.9867 23.0433 22.369 20.8864 22.8365 18.8606ZM21.7047 45.8914C22.8904 46.6397 24.0934 47.3604 25.3138 48.0534C26.5586 48.76 27.8201 49.4369 29.098 50.0842C27.059 50.9711 24.9752 51.7542 22.8548 52.4304C22.3819 50.3765 21.9955 48.1817 21.7047 45.8914ZM41.2302 56.9903C40.2781 59.9794 38.776 62.7702 36.7992 65.2232C36.3106 65.9259 35.6809 66.5225 34.9494 66.9759C34.2178 67.4292 33.3998 67.7298 32.5457 67.8592C29.9395 67.8607 26.6131 64.0308 24.3503 57.6426C24.0838 56.8873 23.8386 56.1251 23.6148 55.3561C26.7102 54.3716 29.7344 53.1813 32.6665 51.7934C35.6255 53.1398 38.671 54.2932 41.7833 55.2461C41.6134 55.8317 41.429 56.4131 41.2302 56.9903ZM42.5266 52.3178C40.4895 51.6968 38.373 50.9328 36.2201 50.0401C37.4337 49.4104 38.6562 48.7453 39.8874 48.045C41.1509 47.3257 42.3822 46.5883 43.5813 45.833C43.3424 48.011 42.9904 50.1754 42.5266 52.3178ZM44.1239 35.5832C44.1265 37.7261 44.0586 39.8672 43.9203 42.0066C42.157 43.1832 40.2955 44.3319 38.3586 45.4343C36.4298 46.5323 34.5187 47.5413 32.644 48.4544C30.6713 47.5223 28.7366 46.5179 26.8399 45.441C24.9539 44.3707 23.1111 43.231 21.3116 42.0219C21.1471 39.8832 21.0642 37.7405 21.063 35.594L21.0634 35.5946C21.0619 33.4496 21.143 31.3068 21.3066 29.1663C23.0694 27.9794 24.9174 26.8315 26.8281 25.7439C28.7475 24.6512 30.6826 23.6465 32.6069 22.736C34.5554 23.6696 36.4687 24.6701 38.3469 25.7375C40.2316 26.8054 42.0795 27.933 43.8906 29.1202C44.0462 31.2712 44.1237 33.4256 44.1239 35.5832ZM47.5479 17.6131C54.4242 16.2945 59.6089 17.1815 60.9077 19.3993C62.2913 21.7621 60.3083 26.9803 55.3467 32.4772C55.0725 32.7805 54.7879 33.0852 54.4932 33.391C52.0756 31.2364 49.512 29.2466 46.8201 27.4354C46.5485 24.2914 46.0637 21.1688 45.369 18.0886C46.1094 17.909 46.8357 17.7505 47.5479 17.6131ZM47.0831 31.3203C48.8988 32.6273 50.6445 34.0263 52.3132 35.5116C50.6519 37.0214 48.9117 38.4445 47.0997 39.7752C47.1552 38.3781 47.1825 36.9803 47.1816 35.5818C47.1809 34.161 47.1481 32.7405 47.0831 31.3203ZM60.9267 51.746C59.6259 53.973 54.5996 54.9017 47.8557 53.6438C47.0829 53.4999 46.2899 53.3287 45.4767 53.1301C46.1546 50.0103 46.6179 46.8489 46.8633 43.6675C49.5507 41.8247 52.1062 39.8018 54.5118 37.613C54.9327 38.0442 55.3331 38.4733 55.713 38.9005C57.8642 41.2065 59.5664 43.883 60.7345 46.7967C61.108 47.5649 61.3178 48.4004 61.3509 49.2517C61.384 50.103 61.2396 50.9519 60.9267 51.746ZM29.3656 30.0774C28.2708 30.7006 27.388 31.6299 26.8289 32.7477C26.2698 33.8655 26.0594 35.1217 26.2244 36.3575C26.3895 37.5932 26.9224 38.7529 27.756 39.6899C28.5895 40.627 29.6862 41.2993 30.9073 41.6218C32.1284 41.9444 33.4191 41.9027 34.6162 41.502C35.8133 41.1014 36.8629 40.3597 37.6325 39.3709C38.402 38.382 38.8569 37.1904 38.9395 35.9467C39.0221 34.703 38.7288 33.4631 38.0967 32.3837C37.249 30.9365 35.8529 29.8806 34.2156 29.4481C32.5783 29.0156 30.8337 29.2419 29.3656 30.0774Z" fill="white"/>
</svg>
