<svg width="64" height="64" viewBox="0 0 64 64" fill="none" xmlns="http://www.w3.org/2000/svg">
<path fill-rule="evenodd" clip-rule="evenodd" d="M0 32C0 14.3269 14.3269 0 32 0C49.6731 0 64 14.3269 64 32C64 49.6731 49.6731 64 32 64C14.3269 64 0 49.6731 0 32ZM16 32.3351C16 23.5277 23.1437 16.384 31.951 16.384C40.7584 16.384 47.9021 23.5277 48 32.3351C48 39.3809 43.4984 45.3504 37.1376 47.5033C36.3547 47.6011 36.0612 47.1118 36.0612 46.7204V42.3167C36.0612 40.8488 35.5719 39.8702 34.9847 39.3809C38.5077 38.9895 42.2263 37.7173 42.2263 31.5522C42.2263 29.7907 41.5413 28.3228 40.5627 27.2464C40.5704 27.2156 40.5812 27.177 40.594 27.131C40.7438 26.5906 41.1785 25.0222 40.3669 23.0384C40.3669 23.0384 38.9969 22.647 35.9633 24.702C34.6912 24.4085 33.321 24.2127 31.951 24.2127C30.5811 24.2127 29.2111 24.3106 27.9388 24.702C24.9052 22.647 23.5352 23.0384 23.5352 23.0384C22.6703 25.1526 23.2209 26.795 23.3337 27.1314L23.3395 27.1485C22.2629 28.3228 21.6758 29.6929 21.6758 31.4543C21.6758 37.6195 25.3945 38.9895 28.9175 39.3809C28.526 39.7724 28.0367 40.4574 27.9388 41.5339C27.0581 41.9253 24.8074 42.6103 23.3395 40.1638C23.3395 40.1638 22.4587 38.5981 20.8929 38.5002C20.8929 38.5002 19.3273 38.5002 20.7952 39.4788C20.7952 39.4788 21.8716 39.9681 22.5565 41.8274C22.5565 41.8274 23.5352 44.9589 27.9388 43.9803V46.7204C27.9388 47.1118 27.6453 47.6011 26.8624 47.5033C20.5994 45.3504 16 39.3809 16 32.3351Z" fill="#ADFF00"/>
</svg>
