<svg width="25" height="25" viewBox="0 0 25 25" fill="none" xmlns="http://www.w3.org/2000/svg">
<path d="M16.1054 2.25146C16.1054 1.83725 16.4452 1.50146 16.8644 1.50146H22.4301C22.8493 1.50146 23.1891 1.83725 23.1891 2.25146V7.75146C23.1891 8.16568 22.8493 8.50146 22.4301 8.50146C22.0109 8.50146 21.6711 8.16568 21.6711 7.75146V4.06212L15.3772 10.2818C15.0808 10.5747 14.6002 10.5747 14.3038 10.2818C14.0074 9.9889 14.0074 9.51402 14.3038 9.22113L20.5978 3.00146H16.8644C16.4452 3.00146 16.1054 2.66568 16.1054 2.25146Z" fill="#ADFF00"/>
<path d="M2.9501 4.25146C2.9501 3.28497 3.74297 2.50146 4.72101 2.50146H13.3226C13.7417 2.50146 14.0815 2.83725 14.0815 3.25146C14.0815 3.66568 13.7417 4.00146 13.3226 4.00146H4.72101C4.58129 4.00146 4.46803 4.11339 4.46803 4.25146V19.7515C4.46803 19.8895 4.58129 20.0015 4.72101 20.0015H20.4062C20.5459 20.0015 20.6592 19.8895 20.6592 19.7515V11.2515C20.6592 10.8373 20.999 10.5015 21.4181 10.5015C21.8373 10.5015 22.1771 10.8373 22.1771 11.2515V19.7515C22.1771 20.718 21.3842 21.5015 20.4062 21.5015H4.72101C3.74297 21.5015 2.9501 20.718 2.9501 19.7515V4.25146Z" fill="#ADFF00"/>
</svg>
