<svg width="72" height="71" viewBox="0 0 72 71" fill="none" xmlns="http://www.w3.org/2000/svg">
<path d="M0.505981 0V70.5703H71.9194V0H0.505981ZM39.3889 52.9072C39.3889 61.5849 35.1332 64.4775 28.8222 64.4775C27.1729 64.4753 25.534 64.2192 23.9645 63.7184L24.6703 59.0821C25.8193 59.4711 27.0265 59.6653 28.241 59.6565C31.5625 59.6565 33.5762 58.1795 33.5762 52.7226V32.5362H39.3889V52.9072ZM52.9243 64.4364C49.9346 64.442 46.9872 63.7385 44.3298 62.385L45.6169 57.6256C47.9634 58.9333 50.6043 59.6386 53.298 59.677C56.9724 59.6976 59.0484 57.9743 59.0484 55.41C59.0484 52.8457 57.4707 51.6969 53.4433 50.1993C48.1911 48.353 44.8488 45.563 44.8488 41.0703C44.8488 35.9211 49.1875 32.0438 56.1005 32.0438C58.7288 31.9647 61.339 32.4989 63.7193 33.603L62.3284 38.2187C60.3614 37.2303 58.1827 36.7237 55.976 36.7417C52.2807 36.7417 50.7237 38.6701 50.7237 40.5164C50.7237 42.9371 52.5714 44.0654 56.8064 45.6656C62.3284 47.717 64.9857 50.4865 64.9857 54.9997C64.9857 60.0668 61.1244 64.4364 52.9243 64.4364Z" fill="white"/>
</svg>
