<svg width="25" height="23" viewBox="0 0 25 23" fill="none" xmlns="http://www.w3.org/2000/svg">
<path fill-rule="evenodd" clip-rule="evenodd" d="M12.5594 0.00146484C6.12971 0.00146484 0.921967 5.14772 0.921967 11.5015C0.921967 16.5902 4.25317 20.8884 8.87904 22.4121C9.46091 22.5127 9.67911 22.1677 9.67911 21.8659C9.67911 21.5927 9.66457 20.6871 9.66457 19.724C6.74067 20.2559 5.98424 19.0196 5.75149 18.3727C5.62057 18.0421 5.05325 17.0215 4.55866 16.7484C4.15135 16.5327 3.56948 16.0009 4.54411 15.9865C5.46055 15.9721 6.11516 16.8202 6.33336 17.1652C7.38073 18.9046 9.0536 18.4159 9.72276 18.114C9.82458 17.3665 10.1301 16.8634 10.4646 16.5759C7.87532 16.2884 5.16962 15.2965 5.16962 10.8977C5.16962 9.6471 5.62057 8.6121 6.36245 7.8071C6.24608 7.5196 5.83877 6.34085 6.47883 4.75959C6.47883 4.75959 7.45346 4.45772 9.67911 5.93835C10.6101 5.6796 11.5993 5.55022 12.5885 5.55022C13.5776 5.55022 14.5668 5.6796 15.4978 5.93835C17.7235 4.44334 18.6981 4.75959 18.6981 4.75959C19.3382 6.34085 18.9309 7.5196 18.8145 7.8071C19.5564 8.6121 20.0073 9.63272 20.0073 10.8977C20.0073 15.3109 17.2871 16.2884 14.6977 16.5759C15.1196 16.9352 15.4833 17.6252 15.4833 18.7034C15.4833 20.2415 15.4687 21.4777 15.4687 21.8659C15.4687 22.1677 15.6869 22.5271 16.2688 22.4121C20.8656 20.8884 24.1968 16.5759 24.1968 11.5015C24.1968 5.14772 18.989 0.00146484 12.5594 0.00146484Z" fill="#ADFF00"/>
</svg>
