<svg width="69" height="71" viewBox="0 0 69 71" fill="none" xmlns="http://www.w3.org/2000/svg">
<path d="M64.1211 42.9586C56.172 44.5984 55.6254 41.9071 55.6254 41.9071C64.0182 29.4535 67.5268 13.6454 64.4993 9.77646C56.2391 -0.777294 41.9407 4.21399 41.702 4.34336L41.6253 4.35725C40.0547 4.03117 38.2973 3.83712 36.3218 3.80478C32.7252 3.74597 29.9968 4.74776 27.9264 6.31779C27.9264 6.31779 2.41939 -4.19026 3.60586 19.5334C3.85818 24.5803 10.8397 57.7213 19.1667 47.7112C22.2102 44.0507 25.1512 40.9558 25.1512 40.9558C26.6116 41.9261 28.3602 42.4211 30.1933 42.2433L30.3357 42.1225C30.2913 42.5769 30.3117 43.0214 30.3927 43.5477C28.2474 45.9444 28.8779 46.3651 24.5896 47.248C20.2502 48.1423 22.7993 49.7343 24.4637 50.1507C26.4815 50.6551 31.1493 51.3698 34.3033 46.9545L34.1777 47.4583C35.018 48.1316 35.6082 51.8373 35.5093 55.1968C35.4104 58.556 35.3444 60.8624 36.0064 62.6639C36.669 64.4654 37.329 68.5188 42.9665 67.3109C47.6769 66.3014 50.118 63.6855 50.4577 59.3218C50.6986 56.2197 51.2441 56.6783 51.2783 53.9047L51.7159 52.5918C52.2202 48.3866 51.796 47.0299 54.698 47.6609L55.4036 47.7229C57.5392 47.82 60.335 47.3792 61.9759 46.6167C65.5088 44.9771 67.6044 42.2393 64.1206 42.9586H64.1211" fill="white"/>
<path d="M29.4195 21.7904C28.7031 21.6907 28.0544 21.7829 27.7262 22.0315C27.5418 22.1713 27.4846 22.3333 27.4691 22.4447C27.4279 22.7401 27.6348 23.0667 27.762 23.2351C28.1218 23.7119 28.6473 24.0396 29.1674 24.1118C29.2428 24.1225 29.3179 24.1273 29.3925 24.1273C30.2598 24.1273 31.0486 23.4518 31.1181 22.9534C31.2049 22.329 30.2986 21.9128 29.4195 21.7907V21.7904ZM53.1501 21.8102C53.0817 21.3208 52.2109 21.1813 51.3844 21.2962C50.559 21.4111 49.7588 21.7837 49.8256 22.2742C49.8791 22.6556 50.5679 23.3067 51.3831 23.3067C51.452 23.3067 51.5215 23.3022 51.5916 23.2923C52.1358 23.2169 52.5351 22.8713 52.7249 22.6722C53.0135 22.3685 53.1809 22.0302 53.1501 21.8102" fill="#000638"/>
<path d="M66.7662 42.7725C66.4631 41.8559 65.4875 41.5611 63.8667 41.8958C59.0542 42.889 57.3308 42.201 56.7649 41.7843C60.5056 36.0858 63.5828 29.1973 65.2429 22.7704C66.0293 19.726 66.4636 16.8987 66.4992 14.5942C66.5385 12.0648 66.1076 10.2061 65.2192 9.07071C61.637 4.49345 56.3795 2.03817 50.0154 1.97081C45.6402 1.92163 41.9437 3.04129 41.2271 3.35615C39.718 2.98088 38.0728 2.75048 36.2818 2.72108C32.9974 2.66789 30.1583 3.45424 27.8078 5.05715C26.7867 4.67707 24.1481 3.77124 20.9211 3.25137C15.3424 2.35329 10.9092 3.0338 7.74558 5.27499C3.97071 7.94945 2.22801 12.7301 2.56559 19.4839C2.67918 21.7561 3.97391 28.7461 6.01704 35.4403C8.70647 44.2511 11.63 49.2389 14.706 50.265C15.066 50.385 15.4811 50.469 15.9389 50.469C17.061 50.469 18.4367 49.9632 19.868 48.2425C21.6138 46.1482 23.4197 44.1047 25.2835 42.1147C26.4927 42.7636 27.8211 43.1261 29.1797 43.1624C29.1824 43.198 29.1859 43.2335 29.1891 43.2688C28.9552 43.5477 28.7262 43.8306 28.5022 44.1174C27.5608 45.3125 27.3649 45.5613 24.3346 46.1852C23.4727 46.3632 21.1834 46.8349 21.1497 48.4397C21.1133 50.1931 23.8559 50.9295 24.1684 51.0075C25.2573 51.2802 26.3064 51.4146 27.3069 51.4146C29.74 51.4146 31.8812 50.6149 33.5923 49.0676C33.5397 55.3183 33.8003 61.4776 34.5508 63.3542C35.1656 64.8906 36.6672 68.6452 41.4104 68.6449C42.1065 68.6449 42.8725 68.5639 43.7152 68.3832C48.6656 67.3221 50.8154 65.1341 51.6469 60.3104C52.092 57.7324 52.8556 51.5766 53.2148 48.2745C53.9729 48.5111 54.9487 48.6193 56.0037 48.6191C58.204 48.6191 60.7429 48.1516 62.3351 47.4125C64.1238 46.5818 67.3516 44.5435 66.7662 42.7725V42.7725ZM54.9773 20.4595C54.961 21.4343 54.8268 22.3192 54.6846 23.243C54.5315 24.2365 54.3733 25.2637 54.3334 26.5106C54.2941 27.724 54.4457 28.9856 54.5922 30.2058C54.8883 32.6701 55.1922 35.2072 54.0159 37.7106C53.8205 37.3644 53.6464 37.0065 53.4947 36.6391C53.3485 36.2846 53.0309 35.7153 52.5913 34.9274C50.8809 31.86 46.8756 24.677 48.926 21.7459C49.5367 20.8735 51.0867 19.9765 54.9773 20.4595V20.4595ZM50.2613 3.94471C55.9636 4.0706 60.4743 6.20381 63.6678 10.2847C66.1172 13.4149 63.4201 27.6577 55.6119 39.9451C55.5333 39.8453 55.4544 39.7458 55.375 39.6466L55.2761 39.5231C57.2939 36.1908 56.8994 32.8939 56.5482 29.9708C56.4038 28.7713 56.2675 27.6382 56.3022 26.5739C56.3381 25.446 56.4872 24.4784 56.6315 23.5429C56.8088 22.3901 56.9892 21.1972 56.9395 19.791C56.9766 19.6435 56.9916 19.4692 56.9721 19.2623C56.8451 17.9139 55.3055 13.8781 52.1676 10.2254C50.4511 8.22743 47.948 5.99158 44.5302 4.48356C46.0003 4.17885 48.0105 3.89473 50.2613 3.94471V3.94471ZM18.3533 46.983C16.7764 48.8791 15.6874 48.5156 15.3293 48.3964C12.9959 47.6181 10.2883 42.6861 7.90114 34.8654C5.83556 28.0982 4.6285 21.2934 4.53281 19.3853C4.23131 13.3505 5.69416 9.14475 8.88101 6.88458C14.0674 3.20674 22.5944 5.4081 26.0207 6.52455C25.9715 6.5732 25.9202 6.61864 25.8715 6.66808C20.2489 12.3463 20.3823 22.0477 20.3962 22.6408C20.3957 22.8696 20.4149 23.1935 20.4411 23.6391C20.5379 25.2709 20.718 28.3078 20.2369 31.7469C19.79 34.9429 20.7752 38.0709 22.9394 40.3292C23.1615 40.5605 23.395 40.7807 23.6389 40.9889C22.6756 42.0206 20.582 44.3021 18.3533 46.983V46.983ZM24.3616 38.9663C22.6173 37.1461 21.8251 34.6144 22.1878 32.0196C22.6957 28.3866 22.5083 25.2225 22.4075 23.5226C22.3934 23.2847 22.3808 23.0762 22.3736 22.9118C23.1949 22.1835 27.0014 20.1441 29.7159 20.7661C30.9545 21.0496 31.7093 21.8932 32.0231 23.344C33.6471 30.8555 32.238 33.9863 31.1058 36.5022C30.8724 37.0205 30.6519 37.5104 30.4638 38.0172L30.3178 38.409C29.9484 39.3996 29.6047 40.3207 29.3917 41.1952C27.5373 41.1899 25.7334 40.3976 24.3616 38.9661V38.9663ZM24.6463 49.0964C24.1048 48.9612 23.6178 48.7262 23.3321 48.5314C23.5707 48.4191 23.9955 48.2662 24.7321 48.1144C28.2969 47.3807 28.8475 46.8627 30.0497 45.3363C30.3253 44.9861 30.6378 44.5895 31.0705 44.1062L31.071 44.1057C31.7155 43.384 32.0103 43.5064 32.5449 43.7283C32.9781 43.9074 33.4002 44.4505 33.5712 45.0481C33.6522 45.3304 33.7431 45.866 33.4456 46.283C30.9342 49.7994 27.2745 49.7542 24.6463 49.0964V49.0964ZM43.3026 66.4572C38.9415 67.3916 37.3974 65.1664 36.3799 62.6227C35.7231 60.9805 35.4003 53.5751 35.6293 45.3969C35.6323 45.2882 35.6168 45.1831 35.5868 45.0842C35.56 44.8889 35.5193 44.6958 35.4649 44.5063C35.1244 43.3164 34.2945 42.321 33.2989 41.9083C32.9033 41.7445 32.1773 41.4438 31.3049 41.667C31.4909 40.9004 31.8136 40.0347 32.1634 39.0973L32.3102 38.703C32.4754 38.2585 32.6828 37.798 32.9019 37.3105C34.0868 34.6783 35.7095 31.0728 33.9484 22.9279C33.2887 19.8771 31.0857 18.3872 27.7463 18.7333C25.7443 18.9405 23.9126 19.7482 22.999 20.2114C22.8026 20.3109 22.623 20.4071 22.4551 20.5006C22.7101 17.4269 23.6734 11.6824 27.2769 8.04781C29.5459 5.75985 32.5676 4.62976 36.2492 4.69071C43.5033 4.80938 48.1551 8.53213 50.7804 11.6345C53.0427 14.3076 54.2677 17.0005 54.7565 18.453C51.08 18.079 48.5796 18.8047 47.3121 20.6169C44.5545 24.5588 48.8207 32.2096 50.871 35.8867C51.2471 36.5605 51.5716 37.1429 51.6737 37.3904C52.3413 39.0086 53.2057 40.0889 53.8368 40.8774C54.0303 41.119 54.218 41.3534 54.3607 41.5582C53.2472 41.8792 51.2471 42.6209 51.4294 46.3284C51.2824 48.1887 50.237 56.8985 49.7059 59.9758C49.0048 64.0412 47.5088 65.5553 43.3026 66.4574V66.4572ZM61.5058 45.626C60.3671 46.1544 58.4616 46.5508 56.6516 46.6361C54.6523 46.7296 53.6345 46.4121 53.395 46.2167C53.2827 43.9063 54.1426 43.6649 55.0527 43.4094C55.1957 43.3693 55.3352 43.33 55.4699 43.283C55.5536 43.3511 55.6453 43.4188 55.7458 43.485C57.3527 44.5456 60.2188 44.66 64.2652 43.8248L64.3096 43.8159C63.7638 44.3262 62.8299 45.011 61.5058 45.626Z" fill="#000638"/>
</svg>
