<svg width="70" height="71" viewBox="0 0 70 71" fill="none" xmlns="http://www.w3.org/2000/svg">
<path fill-rule="evenodd" clip-rule="evenodd" d="M60.2851 7.31467C53.4752 3.87399 46.5001 3.52381 39.3588 6.10875C32.7871 8.48747 27.5449 12.7439 23.6478 18.541C17.0538 28.3507 12.2641 39.0543 9.57994 50.6817C8.20523 56.6325 7.3148 62.9443 7.55414 69.0899C7.57367 69.5886 7.6462 69.732 7.69418 70.8745H41.3734C41.2769 69.732 41.2133 70.0656 41.1296 69.848C39.3582 65.2174 37.9556 60.3274 36.9854 55.4534C35.5917 48.4549 34.862 41.3268 36.3014 34.2638C38.316 24.3736 43.8221 17.2374 53.1042 13.5368C58.362 11.442 63.3525 12.0378 67.7294 15.9715C67.7696 16.0075 67.8521 15.9858 67.9593 16.0035L69.3903 13.7853C66.6342 11.0987 63.6058 8.99303 60.2851 7.31467V7.31467ZM0.95287 52.8193C0.696228 55.0604 0.456324 57.1586 0.205261 59.3608L6.41599 60.124L7.55359 53.3301C5.29123 53.1547 3.14269 52.9884 0.95287 52.8193V52.8193ZM13.1434 33.2903L7.30141 30.9499L5.41342 36.438L11.367 38.3917C11.9695 36.6602 12.5363 35.0315 13.1434 33.2903V33.2903ZM40.7151 63.9434C42.7096 64.0954 44.7081 64.1999 46.9096 64.3313C46.1101 62.6296 45.3999 61.0906 44.6562 59.5699C44.5747 59.4048 44.2997 59.2454 44.1128 59.2426C42.4206 59.2174 40.7273 59.2283 38.9292 59.2283C39.3342 60.7296 39.6863 62.1149 40.0986 63.4802C40.1605 63.6864 40.493 63.9269 40.7151 63.9434V63.9434ZM23.0447 16.6639L18.6065 13.6545C17.417 15.0158 16.2699 16.328 15.0587 17.7133L19.6213 20.8529L23.0447 16.6639ZM37.179 47.1513C37.1717 47.3347 37.333 47.6266 37.4903 47.6992C39.0887 48.4349 40.7039 49.1359 42.4625 49.9116C42.3894 48.4881 42.3403 47.2981 42.2571 46.1105C42.2421 45.8968 42.1439 45.5895 41.9893 45.5015C40.5215 44.6698 39.0329 43.8752 37.4055 42.9909C37.3168 44.5133 37.2264 45.8312 37.179 47.1513V47.1513ZM35.864 5.92252L32.8256 2.39157L28.6417 4.61834C29.6884 5.92423 30.6765 7.15643 31.6852 8.41377L35.864 5.92252ZM37.7693 34.0147C37.6783 34.2283 37.7983 34.6813 37.9774 34.8464C39.1908 35.9672 40.4456 37.0401 41.8415 38.2631C42.1612 36.8921 42.4625 35.6702 42.718 34.4397C42.7632 34.2209 42.7001 33.8593 42.5517 33.7371C41.466 32.8408 40.3452 31.9873 39.1836 31.0801C38.6731 32.117 38.1782 33.047 37.7693 34.0147ZM44.7153 4.06707C46.2663 4.10992 47.819 4.09107 49.4571 4.09107C49.2936 2.92342 49.2155 2.03854 49.0208 1.18222C48.9627 0.927441 48.5884 0.588114 48.3356 0.566407C46.7807 0.437302 45.2197 0.387603 43.5091 0.304199C43.7373 1.4827 43.9114 2.52125 44.1574 3.54209C44.2093 3.75859 44.5184 4.06136 44.7153 4.06707V4.06707ZM46.6039 24.4467C46.6831 24.2947 46.7032 24.0188 46.6201 23.8863C45.8579 22.6655 45.0663 21.4636 44.2467 20.1988L41.591 22.6964L45.2632 26.8631C45.7564 25.9839 46.1977 25.2247 46.6039 24.4467V24.4467ZM49.4688 16.148L51.0549 19.1648C53.5371 17.7721 53.7748 17.2683 52.8961 15.2609L49.4688 16.148V16.148ZM61.3452 6.85195C62.3779 7.50433 63.4686 8.06016 64.5766 8.67141L65.3186 7.48891C63.9674 6.47721 62.663 5.49865 61.1828 4.38926C61.1248 5.01993 61.0383 5.46037 61.0606 5.89567C61.0785 6.22757 61.1326 6.71828 61.3452 6.85195V6.85195ZM59.9046 16.4028C61.0205 16.5268 62.6942 16.645 63.81 16.7701V15.2175C62.6942 14.9672 61.0205 14.7193 59.9046 14.4617V16.4028Z" fill="white"/>
</svg>
