<svg width="72" height="71" viewBox="0 0 72 71" fill="none" xmlns="http://www.w3.org/2000/svg">
<path fill-rule="evenodd" clip-rule="evenodd" d="M19.6636 63.3658C35.4724 65.5907 51.0002 67.7759 66.8366 70.0037C61.4412 60.7446 56.1845 51.7223 50.8857 42.6264L19.6636 63.3658ZM71.2985 12.1146C69.905 14.2719 68.5087 16.4273 67.1169 18.5858C62.3373 25.9979 57.5583 33.41 52.7834 40.8257C52.5175 41.2386 52.1727 41.5662 52.5474 42.2028C57.1612 50.0563 61.7387 57.933 66.3278 65.8025C67.0519 67.0455 67.784 68.2837 68.7205 69.4763C69.6483 50.3761 70.5756 31.2753 71.5028 12.1752L71.2985 12.1146ZM8.31387 36.602C8.52971 36.8126 9.06845 36.9354 9.3194 36.8079C13.745 34.5658 18.1988 32.3735 22.5277 29.9469C23.9396 29.156 25.0251 27.7381 26.2413 26.5882C30.2686 22.781 34.2896 18.9661 38.3088 15.1506C38.5546 14.9162 38.8458 14.6896 38.9926 14.3941C40.4361 11.4857 41.8549 8.56254 43.3238 5.55509C41.5723 4.87635 39.9118 4.21244 38.2305 3.60846C38.0026 3.52659 37.6434 3.68915 37.3965 3.83095C33.5051 6.07185 29.5405 8.1935 25.7728 10.6373C23.8878 11.8601 22.3521 13.662 20.683 15.2313C17.9927 17.7623 15.306 20.2992 12.6549 22.8742C11.9515 23.5577 11.3103 24.3384 10.7624 25.1608C8.9493 27.8822 7.19035 30.6429 5.35081 33.4818C6.37879 34.5776 7.31352 35.6254 8.31387 36.602ZM24.4887 32.8814C22.2871 42.4686 20.0988 52.0017 17.8373 61.8482C28.4412 54.8051 38.8004 47.9246 49.0911 41.0903C40.9018 38.3582 32.739 35.6343 24.4887 32.8814ZM68.5956 12.2072C59.6362 13.7504 50.8909 15.2562 42.0328 16.7815C45.0499 24.3467 48.0067 31.7601 51.0474 39.384C56.9304 30.2715 62.6971 21.3417 68.5956 12.2072ZM24.8582 30.9205C32.926 33.6201 40.8333 36.2662 48.9702 38.9894C45.9484 31.4011 43.0303 24.078 40.0517 16.6C34.978 21.3814 29.9802 26.0922 24.8582 30.9205ZM8.64713 42.1927C5.78594 49.2429 3.02203 56.0534 0.208046 62.9867C5.61615 62.8218 10.8585 62.6622 16.281 62.4973C13.7352 55.7265 11.2395 49.0886 8.64713 42.1927ZM16.4709 57.6755L16.6701 57.6304C18.6 49.3592 20.5575 41.1449 22.5277 32.5503C18.1326 34.9051 13.9401 37.1508 9.63309 39.4587C11.8312 45.3479 14.1749 51.5603 16.4709 57.6755ZM65.3528 10.8657C62.7863 10.165 60.2198 9.46198 57.6522 8.76604C53.9616 7.76573 50.2681 6.77788 46.5798 5.76868C46.1188 5.6423 45.7855 5.55983 45.5144 6.13237C44.2108 8.88529 42.8668 11.6174 41.5424 14.3603C41.5015 14.4451 41.5102 14.5549 41.4785 14.7679C49.4709 13.5196 57.4098 12.279 65.3476 11.039L65.3528 10.8657ZM50.4632 4.60402L71.3814 10.5691C70.1819 7.04546 69.0693 3.77815 67.925 0.417685L50.4937 4.40171L50.4632 4.60402ZM18.2443 64.9541C15.6536 64.6462 12.9939 64.9292 10.3664 64.9761C8.20796 65.0134 6.04956 65.0983 3.89115 65.1677C3.66898 65.1748 3.44738 65.2211 3.22579 65.4679C21.0703 67.1683 38.9143 68.8687 56.7583 70.5703L56.7946 70.3247C51.0745 69.5196 45.3539 68.7145 39.6338 67.91C32.5059 66.9067 25.39 65.8031 18.2443 64.9541ZM0.560874 56.6402C2.8603 51.1403 5.14993 45.6368 7.45856 40.141C7.68937 39.5899 7.67153 39.2155 7.2197 38.7717C6.25389 37.8242 5.35656 36.8031 4.30096 35.6711C2.87411 42.9331 1.48237 50.0154 0.0894775 57.097L0.245458 57.1724C0.35194 56.9962 0.48202 56.8294 0.560874 56.6402ZM45.8817 3.15221C49.7593 2.12105 53.6934 1.31476 57.6044 0.415312C57.8576 0.356575 58.1051 0.270546 58.3544 0.196976L58.3158 0C52.807 0.76358 47.2987 1.52775 41.5125 2.33049C43.0901 3.04067 44.3057 3.57109 45.8817 3.15221Z" fill="white"/>
</svg>
